<?xml version="1.0" encoding="UTF-8" standalone="no"?>
<svg
   version="1.0"
   width="264.61902pt"
   height="73.942154pt"
   viewBox="0 0 264.61902 73.942154"
   preserveAspectRatio="xMidYMid"
   id="svg7"
   xmlns="http://www.w3.org/2000/svg"
   xmlns:svg="http://www.w3.org/2000/svg">
  <defs
     id="defs7" />
  <metadata
     id="metadata1">
Created by potrace 1.10, written by Peter Selinger 2001-2011
</metadata>
  <g
     transform="matrix(0.1,0,0,-0.1,-17.999999,187.92289)"
     fill="#000000"
     stroke="none"
     id="g7"
     style="fill:#ffffff;fill-opacity:1">
    <path
       d="m 575,1860 c -151,-40 -252,-90 -324,-162 -51,-50 -71,-92 -71,-145 0,-47 19,-76 59,-93 46,-19 93,-5 147,43 57,50 146,183 142,211 -4,30 -42,32 -62,4 -12,-17 -18,-20 -28,-10 -7,7 -18,12 -25,12 -21,0 -15,-43 13,-84 l 26,-38 -43,-45 c -72,-74 -140,-100 -173,-67 -32,31 -14,110 41,179 36,46 142,118 218,149 67,27 196,56 249,56 103,0 186,-42 186,-93 0,-34 -47,-99 -101,-142 -42,-32 -53,-36 -121,-39 -88,-4 -153,-30 -153,-61 0,-36 78,-28 208,21 46,18 48,18 83,-1 l 36,-19 -69,-14 c -135,-27 -304,-113 -395,-202 -79,-76 -77,-123 5,-161 207,-93 630,174 521,329 -21,30 -13,37 25,24 25,-9 31,-8 31,4 0,10 -11,14 -37,14 -21,0 -60,12 -89,27 l -51,27 58,38 c 67,45 99,90 99,141 0,29 -7,41 -36,65 -20,17 -56,35 -80,41 -66,17 -209,12 -289,-9 z m 150,-286 c -37,-28 -155,-55 -155,-36 0,14 51,34 105,42 72,11 72,11 50,-6 z m 179,-70 c 25,-66 -31,-162 -140,-240 -167,-119 -364,-139 -364,-36 0,92 209,231 420,278 75,16 77,16 84,-2 z"
       id="path1"
       style="fill:#ffffff;fill-opacity:1" />
    <path
       d="M 649,1778 C 542,1650 445,1482 452,1438 c 5,-37 25,-31 31,9 11,64 77,162 178,265 73,74 93,100 87,112 -17,31 -47,17 -99,-46 z"
       id="path2"
       style="fill:#ffffff;fill-opacity:1" />
    <path
       d="m 1996,1646 c -46,-48 -100,-149 -111,-209 -9,-45 -34,-79 -88,-118 -67,-48 -75,-34 -26,43 18,27 48,60 67,73 30,21 33,25 18,31 -31,12 -69,-9 -107,-59 -35,-48 -112,-107 -136,-107 -24,0 -13,34 29,93 31,45 39,64 31,75 -18,29 -28,22 -70,-53 -45,-78 -51,-103 -31,-123 19,-19 40,-14 91,18 42,27 47,28 47,10 0,-10 7,-26 16,-34 14,-14 18,-14 45,-1 16,9 44,29 63,45 42,37 46,37 46,1 0,-36 35,-81 63,-81 20,1 20,2 5,11 -23,13 -40,81 -32,126 4,23 24,55 54,88 54,60 104,131 114,161 7,22 -14,54 -35,54 -5,0 -29,-20 -53,-44 z m 74,-5 c 0,-12 -72,-117 -110,-161 l -31,-35 16,40 c 21,52 58,114 85,143 21,23 40,29 40,13 z"
       id="path3"
       style="fill:#ffffff;fill-opacity:1" />
    <path
       d="m 2320,1675 c -14,-8 -46,-14 -72,-15 -52,0 -53,-1 -37,-32 8,-15 17,-18 37,-13 25,6 26,5 10,-12 -26,-29 -75,-124 -92,-179 -13,-40 -26,-58 -61,-83 -52,-38 -88,-38 -93,-2 -3,18 8,34 45,66 41,37 46,46 37,62 -19,32 -48,27 -87,-16 -44,-48 -56,-100 -33,-136 25,-38 73,-34 130,10 l 46,35 v -35 c 0,-39 15,-51 53,-41 27,6 111,65 104,72 -3,3 -24,-8 -48,-25 -23,-17 -51,-31 -62,-31 -17,0 -19,5 -13,42 5,33 19,53 68,102 68,68 138,169 138,199 0,16 5,18 28,12 24,-6 25,-5 12,8 -23,22 -81,29 -110,12 z m 35,-77 c -46,-72 -139,-181 -143,-169 -5,15 76,155 116,198 24,27 36,33 44,25 8,-8 4,-22 -17,-54 z m -275,-146 c 0,-5 -13,-21 -30,-37 -34,-33 -40,-21 -9,19 20,25 39,34 39,18 z"
       id="path4"
       style="fill:#ffffff;fill-opacity:1" />
    <path
       d="m 2501,1645 c -79,-72 -184,-246 -189,-316 -4,-47 13,-58 32,-22 22,43 133,143 158,143 21,0 3,-23 -47,-57 -30,-21 -55,-43 -55,-50 0,-18 59,-63 83,-63 13,0 39,14 60,31 l 37,30 v -25 c 0,-15 8,-30 21,-36 23,-13 28,-10 93,49 22,21 36,29 33,19 -3,-10 2,-27 13,-40 l 18,-23 36,19 c 20,11 34,21 32,23 -2,3 -14,-1 -26,-7 -33,-18 -44,2 -19,34 17,21 19,29 9,41 -7,8 -17,15 -21,15 -5,0 -39,-27 -74,-60 -81,-75 -106,-79 -71,-12 41,78 156,142 170,95 3,-11 4,-8 3,7 -2,30 -40,46 -83,36 -16,-4 -54,-33 -84,-64 -92,-95 -144,-121 -190,-92 -17,10 -19,9 42,44 56,32 73,57 58,86 -6,11 -18,20 -27,20 -18,0 -70,-36 -127,-89 -80,-75 -15,7 79,99 104,102 140,154 124,183 -15,26 -45,20 -88,-18 z m 79,-3 c 0,-24 -182,-232 -194,-221 -3,3 14,34 37,70 65,100 157,188 157,151 z"
       id="path5"
       style="fill:#ffffff;fill-opacity:1" />
    <path
       d="m 1706,1584 c -20,-43 -16,-50 16,-33 31,16 38,30 27,51 -14,26 -23,22 -43,-18 z"
       id="path6"
       style="fill:#ffffff;fill-opacity:1" />
    <path
       d="m 1538,1465 c 2,-20 -1,-50 -8,-68 -14,-33 -58,-87 -72,-87 -12,0 -10,35 4,65 10,21 9,29 -6,43 -16,16 -18,16 -28,-3 -19,-33 -110,-125 -119,-119 -11,6 -2,27 37,93 25,42 31,59 23,73 -11,20 -29,24 -29,7 0,-41 -117,-159 -158,-159 -17,0 -15,35 3,50 19,16 19,39 0,47 -10,3 -40,-17 -84,-56 -38,-33 -74,-61 -81,-61 -15,0 -4,36 23,73 44,63 147,113 147,72 0,-8 5,-15 10,-15 16,0 11,26 -8,43 -28,26 -74,21 -120,-13 -79,-57 -117,-146 -73,-170 28,-14 27,-15 81,36 48,45 50,46 50,22 0,-55 52,-60 116,-12 27,21 32,22 28,7 -3,-10 1,-27 9,-37 21,-28 59,-14 95,34 l 29,40 6,-30 c 5,-21 14,-31 34,-36 23,-6 32,-1 63,34 41,46 66,109 55,141 -11,36 -31,25 -27,-14 z"
       id="path7"
       style="fill:#ffffff;fill-opacity:1" />
  </g>
</svg>
